<svg fill="none" xmlns="http://www.w3.org/2000/svg" width="800px" height="800px" viewBox="0 0 52 52"
    enable-background="new 0 0 52 52" xml:space="preserve">
    <path
        d="M26,4C12.7,4,2.1,13.8,2.1,25.9c0,3.8,1.1,7.4,2.9,10.6c0.3,0.5,0.4,1.1,0.2,1.7l-3.1,8.5
      c-0.3,0.8,0.5,1.5,1.3,1.3l8.6-3.3c0.5-0.2,1.1-0.1,1.7,0.2c3.6,2,7.9,3.2,12.5,3.2C39.3,48,50,38.3,50,26.1C49.9,13.8,39.2,4,26,4z"
        stroke="#EFBF04" stroke-width="4" stroke-linecap="round" stroke-linejoin="round" />
    <circle cx="14" cy="26" r="3.5" fill="#EFBF04" />
    <circle cx="26" cy="26" r="3.5" fill="#EFBF04" />
    <circle cx="38" cy="26" r="3.5" fill="#EFBF04" />

</svg>